<svg width="20" height="20" viewBox="0 0 20 20" fill="none" xmlns="http://www.w3.org/2000/svg">
    <g clip-path="url(#clip0_121_3084)">
        <path d="M16.6667 1.66667H15.8333V0.833333C15.8333 0.61232 15.7455 0.400358 15.5893 0.244078C15.433 0.0877974 15.221 0 15 0C14.779 0 14.567 0.0877974 14.4107 0.244078C14.2545 0.400358 14.1667 0.61232 14.1667 0.833333V1.66667H5.83333V0.833333C5.83333 0.61232 5.74554 0.400358 5.58926 0.244078C5.43297 0.0877974 5.22101 0 5 0C4.77899 0 4.56702 0.0877974 4.41074 0.244078C4.25446 0.400358 4.16667 0.61232 4.16667 0.833333V1.66667H3.33333C2.44928 1.66667 1.60143 2.01786 0.976311 2.64298C0.35119 3.2681 0 4.11594 0 5L0 16.6667C0 17.5507 0.35119 18.3986 0.976311 19.0237C1.60143 19.6488 2.44928 20 3.33333 20H16.6667C17.5507 20 18.3986 19.6488 19.0237 19.0237C19.6488 18.3986 20 17.5507 20 16.6667V5C20 4.11594 19.6488 3.2681 19.0237 2.64298C18.3986 2.01786 17.5507 1.66667 16.6667 1.66667ZM18.3333 16.6667C18.3333 17.1087 18.1577 17.5326 17.8452 17.8452C17.5326 18.1577 17.1087 18.3333 16.6667 18.3333H3.33333C2.89131 18.3333 2.46738 18.1577 2.15482 17.8452C1.84226 17.5326 1.66667 17.1087 1.66667 16.6667V5C1.66667 4.55797 1.84226 4.13405 2.15482 3.82149C2.46738 3.50893 2.89131 3.33333 3.33333 3.33333H4.16667V4.16667C4.16667 4.38768 4.25446 4.59964 4.41074 4.75592C4.56702 4.9122 4.77899 5 5 5C5.22101 5 5.43297 4.9122 5.58926 4.75592C5.74554 4.59964 5.83333 4.38768 5.83333 4.16667V3.33333H14.1667V4.16667C14.1667 4.38768 14.2545 4.59964 14.4107 4.75592C14.567 4.9122 14.779 5 15 5C15.221 5 15.433 4.9122 15.5893 4.75592C15.7455 4.59964 15.8333 4.38768 15.8333 4.16667V3.33333H16.6667C17.1087 3.33333 17.5326 3.50893 17.8452 3.82149C18.1577 4.13405 18.3333 4.55797 18.3333 5V16.6667Z" fill="black"/>
        <path d="M15.8333 5.83301H4.16665C3.94563 5.83301 3.73367 5.92081 3.57739 6.07709C3.42111 6.23337 3.33331 6.44533 3.33331 6.66634C3.33331 6.88735 3.42111 7.09932 3.57739 7.2556C3.73367 7.41188 3.94563 7.49967 4.16665 7.49967H15.8333C16.0543 7.49967 16.2663 7.41188 16.4226 7.2556C16.5788 7.09932 16.6666 6.88735 16.6666 6.66634C16.6666 6.44533 16.5788 6.23337 16.4226 6.07709C16.2663 5.92081 16.0543 5.83301 15.8333 5.83301Z" fill="black"/>
        <path d="M5.83331 10H4.16665C3.94563 10 3.73367 10.0878 3.57739 10.2441C3.42111 10.4004 3.33331 10.6123 3.33331 10.8333C3.33331 11.0543 3.42111 11.2663 3.57739 11.4226C3.73367 11.5789 3.94563 11.6667 4.16665 11.6667H5.83331C6.05433 11.6667 6.26629 11.5789 6.42257 11.4226C6.57885 11.2663 6.66665 11.0543 6.66665 10.8333C6.66665 10.6123 6.57885 10.4004 6.42257 10.2441C6.26629 10.0878 6.05433 10 5.83331 10Z" fill="black"/>
        <path d="M5.83331 14.167H4.16665C3.94563 14.167 3.73367 14.2548 3.57739 14.4111C3.42111 14.5673 3.33331 14.7793 3.33331 15.0003C3.33331 15.2213 3.42111 15.4333 3.57739 15.5896C3.73367 15.7459 3.94563 15.8337 4.16665 15.8337H5.83331C6.05433 15.8337 6.26629 15.7459 6.42257 15.5896C6.57885 15.4333 6.66665 15.2213 6.66665 15.0003C6.66665 14.7793 6.57885 14.5673 6.42257 14.4111C6.26629 14.2548 6.05433 14.167 5.83331 14.167Z" fill="black"/>
        <path d="M10.8333 10H9.16665C8.94563 10 8.73367 10.0878 8.57739 10.2441C8.42111 10.4004 8.33331 10.6123 8.33331 10.8333C8.33331 11.0543 8.42111 11.2663 8.57739 11.4226C8.73367 11.5789 8.94563 11.6667 9.16665 11.6667H10.8333C11.0543 11.6667 11.2663 11.5789 11.4226 11.4226C11.5788 11.2663 11.6666 11.0543 11.6666 10.8333C11.6666 10.6123 11.5788 10.4004 11.4226 10.2441C11.2663 10.0878 11.0543 10 10.8333 10Z" fill="black"/>
        <path d="M10.8333 14.167H9.16665C8.94563 14.167 8.73367 14.2548 8.57739 14.4111C8.42111 14.5673 8.33331 14.7793 8.33331 15.0003C8.33331 15.2213 8.42111 15.4333 8.57739 15.5896C8.73367 15.7459 8.94563 15.8337 9.16665 15.8337H10.8333C11.0543 15.8337 11.2663 15.7459 11.4226 15.5896C11.5788 15.4333 11.6666 15.2213 11.6666 15.0003C11.6666 14.7793 11.5788 14.5673 11.4226 14.4111C11.2663 14.2548 11.0543 14.167 10.8333 14.167Z" fill="black"/>
        <path d="M15.8333 10H14.1666C13.9456 10 13.7337 10.0878 13.5774 10.2441C13.4211 10.4004 13.3333 10.6123 13.3333 10.8333C13.3333 11.0543 13.4211 11.2663 13.5774 11.4226C13.7337 11.5789 13.9456 11.6667 14.1666 11.6667H15.8333C16.0543 11.6667 16.2663 11.5789 16.4226 11.4226C16.5788 11.2663 16.6666 11.0543 16.6666 10.8333C16.6666 10.6123 16.5788 10.4004 16.4226 10.2441C16.2663 10.0878 16.0543 10 15.8333 10Z" fill="black"/>
        <path d="M15.8333 14.167H14.1666C13.9456 14.167 13.7337 14.2548 13.5774 14.4111C13.4211 14.5673 13.3333 14.7793 13.3333 15.0003C13.3333 15.2213 13.4211 15.4333 13.5774 15.5896C13.7337 15.7459 13.9456 15.8337 14.1666 15.8337H15.8333C16.0543 15.8337 16.2663 15.7459 16.4226 15.5896C16.5788 15.4333 16.6666 15.2213 16.6666 15.0003C16.6666 14.7793 16.5788 14.5673 16.4226 14.4111C16.2663 14.2548 16.0543 14.167 15.8333 14.167Z" fill="black"/>
    </g>
    <defs>
        <clipPath id="clip0_121_3084">
            <rect width="20" height="20" fill="white"/>
        </clipPath>
    </defs>
</svg>
